<svg xmlns="http://www.w3.org/2000/svg" width="14" height="15" viewBox="0 0 14 15" fill="none">
    <path d="M12.6875 2.31891C12.684 1.95915 12.5389 1.61526 12.2836 1.36178C12.0283 1.10831 11.6834 0.965691 11.3236 0.964844L2.66984 0.9375C2.31044 0.937571 1.96574 1.08015 1.71129 1.33398C1.45685 1.5878 1.31344 1.93216 1.3125 2.29156V11.2188C1.3125 11.9652 1.92172 12.5312 2.66984 12.5312H10.0625L9.70703 11.3281L12.6875 14.0625V2.31891ZM8.87715 9.51824C8.87715 9.51824 8.63871 9.23414 8.43965 8.98996C9.30754 8.74551 9.63867 8.21094 9.63867 8.21094C9.4003 8.36906 9.14484 8.49977 8.87715 8.60059C8.56806 8.72892 8.24626 8.82415 7.91711 8.88469C7.34998 8.98886 6.76842 8.98663 6.20211 8.87812C5.86899 8.81626 5.54296 8.72099 5.22895 8.59375C5.06283 8.53012 4.9013 8.45512 4.74551 8.36926C4.72555 8.35613 4.70586 8.34957 4.6859 8.33617C4.6725 8.32961 4.66594 8.32305 4.65855 8.32305C4.53934 8.25688 4.47316 8.21066 4.47316 8.21066C4.47316 8.21066 4.7909 8.73266 5.63199 8.9834C5.4332 9.23441 5.1882 9.52508 5.1882 9.52508C3.72504 9.47887 3.16887 8.52785 3.16887 8.52785C3.16887 6.42074 4.12234 4.71012 4.12234 4.71012C5.07582 4.00328 5.97625 4.02324 5.97625 4.02324L6.04242 4.10254C4.85051 4.43941 4.30773 4.96113 4.30773 4.96113C4.30773 4.96113 4.4532 4.88184 4.6982 4.77602C5.40668 4.46566 5.96969 4.38637 6.20211 4.36012C6.2392 4.35241 6.2769 4.34792 6.31477 4.34672C6.75845 4.28915 7.20742 4.28474 7.65215 4.33359C8.35044 4.41381 9.02695 4.62681 9.64523 4.96113C9.64523 4.96113 9.12215 4.46484 7.99641 4.12852L8.0891 4.02297C8.0891 4.02297 8.99609 4.00301 9.94328 4.71094C9.94328 4.71094 10.8968 6.42156 10.8968 8.52867C10.8968 8.52102 10.3403 9.47203 8.87715 9.51824Z"
          fill="#1D2025"/>
    <path d="M5.79819 6.46094C5.42085 6.46094 5.1228 6.78469 5.1228 7.18746C5.1228 7.59023 5.42741 7.91398 5.79819 7.91398C6.17554 7.91398 6.47358 7.59051 6.47358 7.18746C6.48042 6.78387 6.17554 6.46094 5.79819 6.46094ZM8.21483 6.46094C7.83749 6.46094 7.53944 6.78469 7.53944 7.18746C7.53944 7.59023 7.84405 7.91398 8.21483 7.91398C8.59245 7.91398 8.89022 7.59051 8.89022 7.18746C8.89022 6.78441 8.58589 6.46094 8.21483 6.46094Z"
          fill="black"/>
</svg>