<svg xmlns="http://www.w3.org/2000/svg" width="14" height="15" viewBox="0 0 14 15" fill="none">
    <path d="M7 0.5C3.1325 0.5 0 3.6325 0 7.5C0 10.5975 2.00375 13.2138 4.78625 14.1413C5.13625 14.2025 5.2675 13.9925 5.2675 13.8088C5.2675 13.6425 5.25875 13.0913 5.25875 12.505C3.5 12.8288 3.045 12.0763 2.905 11.6825C2.82625 11.4813 2.485 10.86 2.1875 10.6938C1.9425 10.5625 1.5925 10.2388 2.17875 10.23C2.73 10.2213 3.12375 10.7375 3.255 10.9475C3.885 12.0063 4.89125 11.7088 5.29375 11.525C5.355 11.07 5.53875 10.7638 5.74 10.5888C4.1825 10.4138 2.555 9.81 2.555 7.1325C2.555 6.37125 2.82625 5.74125 3.2725 5.25125C3.2025 5.07625 2.9575 4.35875 3.3425 3.39625C3.3425 3.39625 3.92875 3.2125 5.2675 4.11375C5.8275 3.95625 6.4225 3.8775 7.0175 3.8775C7.6125 3.8775 8.2075 3.95625 8.7675 4.11375C10.1063 3.20375 10.6925 3.39625 10.6925 3.39625C11.0775 4.35875 10.8325 5.07625 10.7625 5.25125C11.2087 5.74125 11.48 6.3625 11.48 7.1325C11.48 9.81875 9.84375 10.4138 8.28625 10.5888C8.54 10.8075 8.75875 11.2275 8.75875 11.8838C8.75875 12.82 8.75 13.5725 8.75 13.8088C8.75 13.9925 8.88125 14.2113 9.23125 14.1413C10.6209 13.6722 11.8285 12.7792 12.684 11.5878C13.5395 10.3964 13.9998 8.96671 14 7.5C14 3.6325 10.8675 0.5 7 0.5Z"
          fill="#1D2025"/>
</svg>