<svg width="28" height="24" viewBox="0 0 28 24" fill="none" xmlns="http://www.w3.org/2000/svg">
<path fill-rule="evenodd" clip-rule="evenodd" d="M13.8536 8.14645C14.0488 8.34171 14.0488 8.65829 13.8536 8.85355L10.7071 12L13.8536 15.1464C14.0488 15.3417 14.0488 15.6583 13.8536 15.8536C13.6583 16.0488 13.3417 16.0488 13.1464 15.8536L9.64645 12.3536C9.45118 12.1583 9.45118 11.8417 9.64645 11.6464L13.1464 8.14645C13.3417 7.95118 13.6583 7.95118 13.8536 8.14645ZM17.8536 8.14645C18.0488 8.34171 18.0488 8.65829 17.8536 8.85355L14.7071 12L17.8536 15.1464C18.0488 15.3417 18.0488 15.6583 17.8536 15.8536C17.6583 16.0488 17.3417 16.0488 17.1464 15.8536L13.6464 12.3536C13.4512 12.1583 13.4512 11.8417 13.6464 11.6464L17.1464 8.14645C17.3417 7.95118 17.6583 7.95118 17.8536 8.14645Z" fill="black"/>
</svg>
