<svg xmlns="http://www.w3.org/2000/svg" width="14" height="14" viewBox="0 0 14 14" fill="none">
    <path fill-rule="evenodd" clip-rule="evenodd" d="M0.854272 9.02029C1.40125 8.47331 2.14312 8.16602 2.91667 8.16602H7.58333C8.35688 8.16602 9.09875 8.47331 9.64573 9.02029C10.1927 9.56727 10.5 10.3091 10.5 11.0827V12.2493C10.5 12.5715 10.2388 12.8327 9.91667 12.8327C9.5945 12.8327 9.33333 12.5715 9.33333 12.2493V11.0827C9.33333 10.6186 9.14896 10.1734 8.82077 9.84525C8.49258 9.51706 8.04746 9.33268 7.58333 9.33268H2.91667C2.45254 9.33268 2.00742 9.51706 1.67923 9.84525C1.35104 10.1734 1.16667 10.6186 1.16667 11.0827V12.2493C1.16667 12.5715 0.905499 12.8327 0.583333 12.8327C0.261167 12.8327 0 12.5715 0 12.2493V11.0827C0 10.3091 0.307291 9.56727 0.854272 9.02029Z" fill="#1D2025"/>
    <path fill-rule="evenodd" clip-rule="evenodd" d="M5.24998 2.33268C4.28348 2.33268 3.49998 3.11618 3.49998 4.08268C3.49998 5.04918 4.28348 5.83268 5.24998 5.83268C6.21648 5.83268 6.99998 5.04918 6.99998 4.08268C6.99998 3.11618 6.21648 2.33268 5.24998 2.33268ZM2.33331 4.08268C2.33331 2.47185 3.63915 1.16602 5.24998 1.16602C6.86081 1.16602 8.16665 2.47185 8.16665 4.08268C8.16665 5.69351 6.86081 6.99935 5.24998 6.99935C3.63915 6.99935 2.33331 5.69351 2.33331 4.08268Z" fill="#1D2025"/>
    <path fill-rule="evenodd" clip-rule="evenodd" d="M11.1019 8.67983C11.1824 8.36789 11.5006 8.18031 11.8125 8.26085C12.4382 8.42241 12.9926 8.78721 13.3885 9.29796C13.7844 9.80871 13.9995 10.4365 14 11.0827L14 12.2498C14 12.572 13.7388 12.8332 13.4167 12.8332C13.0945 12.8332 12.8333 12.572 12.8333 12.2498L12.8333 11.0836C12.8333 11.0835 12.8333 11.0837 12.8333 11.0836C12.833 10.6959 12.704 10.3191 12.4664 10.0127C12.2289 9.70628 11.8963 9.48741 11.5208 9.39047C11.2089 9.30993 11.0213 8.99176 11.1019 8.67983Z" fill="black"/>
    <path fill-rule="evenodd" clip-rule="evenodd" d="M8.76825 1.68097C8.84816 1.36887 9.16594 1.18065 9.47804 1.26056C10.1054 1.42119 10.6615 1.78607 11.0586 2.29766C11.4557 2.80925 11.6713 3.43845 11.6713 4.08608C11.6713 4.7337 11.4557 5.36291 11.0586 5.8745C10.6615 6.38609 10.1054 6.75096 9.47804 6.9116C9.16594 6.99151 8.84816 6.80328 8.76825 6.49118C8.68834 6.17909 8.87656 5.8613 9.18866 5.78139C9.56509 5.68501 9.89874 5.46608 10.137 5.15913C10.3753 4.85217 10.5046 4.47465 10.5046 4.08608C10.5046 3.6975 10.3753 3.31998 10.137 3.01303C9.89874 2.70607 9.56509 2.48715 9.18866 2.39077C8.87656 2.31086 8.68834 1.99307 8.76825 1.68097Z" fill="black"/>
</svg>