<svg xmlns="http://www.w3.org/2000/svg" width="14" height="14" viewBox="0 0 14 14" fill="none">
    <path fill-rule="evenodd" clip-rule="evenodd" d="M6.64189 0.706862C6.85254 0.543025 7.1475 0.543025 7.35815 0.706862L12.6082 4.7902C12.7502 4.90071 12.8334 5.07064 12.8334 5.25065V11.6673C12.8334 12.1314 12.649 12.5766 12.3208 12.9048C11.9926 13.2329 11.5475 13.4173 11.0834 13.4173H2.91669C2.45256 13.4173 2.00744 13.2329 1.67925 12.9048C1.35106 12.5766 1.16669 12.1314 1.16669 11.6673V5.25065C1.16669 5.07064 1.2498 4.90071 1.39189 4.7902L6.64189 0.706862ZM2.33335 5.53595V11.6673C2.33335 11.822 2.39481 11.9704 2.50421 12.0798C2.6136 12.1892 2.76198 12.2507 2.91669 12.2507H11.0834C11.2381 12.2507 11.3864 12.1892 11.4958 12.0798C11.6052 11.9704 11.6667 11.822 11.6667 11.6673V5.53595L7.00002 1.90632L2.33335 5.53595Z" fill="#1D2025"/>
    <path fill-rule="evenodd" clip-rule="evenodd" d="M4.66669 6.99935C4.66669 6.67718 4.92785 6.41602 5.25002 6.41602H8.75002C9.07219 6.41602 9.33335 6.67718 9.33335 6.99935V12.8327C9.33335 13.1548 9.07219 13.416 8.75002 13.416C8.42785 13.416 8.16669 13.1548 8.16669 12.8327V7.58268H5.83335V12.8327C5.83335 13.1548 5.57219 13.416 5.25002 13.416C4.92785 13.416 4.66669 13.1548 4.66669 12.8327V6.99935Z" fill="#1D2025"/>
</svg>