<svg xmlns="http://www.w3.org/2000/svg" width="14" height="14" viewBox="0 0 14 14" fill="none">
    <path fill-rule="evenodd" clip-rule="evenodd" d="M0.583313 6.99935C0.583313 6.67718 0.84448 6.41602 1.16665 6.41602H4.66665C4.86169 6.41602 5.04382 6.51349 5.15201 6.67577L6.1455 8.16602H7.85446L8.84795 6.67577C8.95614 6.51349 9.13827 6.41602 9.33331 6.41602H12.8333C13.1555 6.41602 13.4166 6.67718 13.4166 6.99935C13.4166 7.32152 13.1555 7.58268 12.8333 7.58268H9.6455L8.65201 9.07292C8.54382 9.23521 8.36169 9.33268 8.16665 9.33268H5.83331C5.63827 9.33268 5.45614 9.23521 5.34795 9.07292L4.35446 7.58268H1.16665C0.84448 7.58268 0.583313 7.32152 0.583313 6.99935Z" fill="#1D2025"/>
    <path fill-rule="evenodd" clip-rule="evenodd" d="M4.22331 1.75L9.77665 1.75C10.1022 1.75017 10.4216 1.84116 10.6983 2.01274C10.9747 2.18417 11.1979 2.42926 11.3428 2.72048C11.3429 2.72074 11.3431 2.72099 11.3432 2.72125L13.3549 6.73882C13.3955 6.8199 13.4166 6.90933 13.4166 7V10.5C13.4166 10.9641 13.2323 11.4092 12.9041 11.7374C12.5759 12.0656 12.1308 12.25 11.6666 12.25H2.33331C1.86918 12.25 1.42406 12.0656 1.09588 11.7374C0.767687 11.4092 0.583313 10.9641 0.583313 10.5V7C0.583313 6.90933 0.604451 6.8199 0.645049 6.73882L2.65675 2.72125C2.65689 2.72097 2.65704 2.72068 2.65718 2.7204C2.80207 2.42921 3.02525 2.18416 3.30167 2.01274C3.57836 1.84116 3.89774 1.75017 4.22331 1.75ZM3.17915 2.98083L3.70074 3.24201L1.74998 7.13789V10.5C1.74998 10.6547 1.81144 10.8031 1.92083 10.9125C2.03023 11.0219 2.1786 11.0833 2.33331 11.0833H11.6666C11.8214 11.0833 11.9697 11.0219 12.0791 10.9125C12.1885 10.8031 12.25 10.6547 12.25 10.5V7.13788L10.2992 3.24201L10.2984 3.24042C10.2501 3.14323 10.1757 3.06144 10.0835 3.00425C9.99125 2.94707 9.88494 2.91674 9.77645 2.91667H4.22351C4.11503 2.91674 4.00871 2.94707 3.91651 3.00425C3.82428 3.06144 3.74983 3.14323 3.70154 3.24042L3.17915 2.98083Z" fill="#1D2025"/>
</svg>