<svg xmlns="http://www.w3.org/2000/svg" width="14" height="14" viewBox="0 0 14 14" fill="none">
    <path d="M7 7.87421C6.76794 7.87421 6.54538 7.78202 6.38128 7.61793C6.21719 7.45383 6.125 7.23127 6.125 6.99921C6.125 6.76714 6.21719 6.54458 6.38128 6.38049C6.54538 6.21639 6.76794 6.12421 7 6.12421C7.23206 6.12421 7.45462 6.21639 7.61872 6.38049C7.78281 6.54458 7.875 6.76714 7.875 6.99921C7.875 7.23127 7.78281 7.45383 7.61872 7.61793C7.45462 7.78202 7.23206 7.87421 7 7.87421ZM6.692 9.62071C6.79408 9.74321 6.89675 9.86221 7 9.97596C7.10325 9.86221 7.20592 9.74379 7.308 9.62071C7.10269 9.62506 6.89731 9.62506 6.692 9.62071ZM5.52825 9.54779C5.08029 9.50118 4.63528 9.42951 4.19533 9.33312C4.15158 9.53729 4.11833 9.73562 4.09617 9.92579C3.98533 10.8492 4.13992 11.4104 4.375 11.5457C4.61008 11.6816 5.173 11.5346 5.91792 10.9775C6.07133 10.8626 6.22592 10.7349 6.38108 10.5955C6.07746 10.2624 5.79273 9.91267 5.52825 9.54779ZM9.80467 9.33312C9.38642 9.42646 8.93958 9.49879 8.47175 9.54779C8.20727 9.91267 7.92254 10.2624 7.61892 10.5955C7.77408 10.7355 7.92867 10.8626 8.08208 10.9775C8.827 11.5346 9.38992 11.6816 9.625 11.5457C9.86008 11.4104 10.0141 10.8492 9.90442 9.92579C9.88034 9.72684 9.84725 9.52908 9.80525 9.33312H9.80467ZM10.6505 9.10737C10.9871 10.6468 10.8103 11.8724 10.0625 12.304C9.31467 12.7357 8.16492 12.276 7 11.215C5.83508 12.276 4.68533 12.7351 3.9375 12.3035C3.18967 11.8718 3.01292 10.6468 3.34892 9.10679C1.84742 8.62904 0.875 7.86254 0.875 6.99921C0.875 6.13587 1.84742 5.36996 3.34892 4.89104C3.01292 3.35162 3.18967 2.12604 3.9375 1.69437C4.68533 1.26271 5.83508 1.72237 7 2.78346C8.16492 1.72237 9.31467 1.26329 10.0625 1.69496C10.8103 2.12662 10.9871 3.35162 10.6511 4.89162C12.1526 5.36937 13.125 6.13587 13.125 6.99921C13.125 7.86254 12.1526 8.62846 10.6511 9.10737H10.6505ZM6.3805 3.40296C6.23215 3.26868 6.0778 3.14119 5.91792 3.02087C5.173 2.46379 4.61008 2.31679 4.375 2.45271C4.13992 2.58804 3.98592 3.14921 4.09558 4.07262C4.11892 4.26337 4.15158 4.46112 4.19475 4.66529C4.63489 4.56889 5.08009 4.49722 5.52825 4.45062C5.80533 4.06971 6.09117 3.71912 6.38108 3.40296H6.3805ZM8.47175 4.45062C8.93958 4.49962 9.38642 4.57254 9.80467 4.66529C9.84842 4.46112 9.88167 4.26279 9.90383 4.07262C10.0147 3.14921 9.86008 2.58804 9.625 2.45271C9.38992 2.31679 8.827 2.46379 8.08208 3.02087C7.922 3.14117 7.76745 3.26866 7.61892 3.40296C7.90883 3.71912 8.19467 4.06971 8.47175 4.45062ZM7.308 4.37771C7.20592 4.25521 7.10325 4.13621 7 4.02246C6.89675 4.13621 6.79408 4.25462 6.692 4.37771C6.89731 4.37335 7.10269 4.37335 7.308 4.37771ZM4.88367 8.57654C4.77724 8.40102 4.67455 8.22325 4.57567 8.04337C4.52025 8.19329 4.46892 8.34087 4.42225 8.48729C4.57217 8.51996 4.72617 8.54971 4.88308 8.57654H4.88367ZM6.01067 8.71304C6.66931 8.76196 7.33068 8.76196 7.98933 8.71304C8.36104 8.16701 8.69172 7.59416 8.97867 6.99921C8.69172 6.40425 8.36104 5.8314 7.98933 5.28537C7.33068 5.23645 6.66931 5.23645 6.01067 5.28537C5.63896 5.8314 5.30828 6.40425 5.02133 6.99921C5.30828 7.59416 5.63896 8.16701 6.01067 8.71304ZM9.42433 5.95504C9.47975 5.80512 9.53108 5.65754 9.57775 5.51112C9.42482 5.47794 9.27117 5.44818 9.11692 5.42187C9.22314 5.5974 9.32564 5.77517 9.42433 5.95504ZM3.57583 5.73746C3.3775 5.80162 3.18967 5.87162 3.0135 5.94746C2.15892 6.31379 1.75 6.72796 1.75 6.99921C1.75 7.27046 2.15833 7.68462 3.0135 8.05096C3.18967 8.12679 3.3775 8.19679 3.57583 8.26096C3.70533 7.85262 3.86575 7.42912 4.05708 6.99921C3.87323 6.58794 3.71256 6.1667 3.57583 5.73746ZM4.42167 5.51112C4.46892 5.65696 4.52025 5.80512 4.57567 5.95446C4.67456 5.77477 4.77725 5.59721 4.88367 5.42187C4.72617 5.44871 4.57217 5.47846 4.42225 5.51112H4.42167ZM10.4242 8.26096C10.6225 8.19679 10.8103 8.12679 10.9865 8.05096C11.8411 7.68462 12.25 7.27046 12.25 6.99921C12.25 6.72796 11.8417 6.31379 10.9865 5.94746C10.8023 5.869 10.6147 5.79893 10.4242 5.73746C10.2947 6.14579 10.1342 6.56929 9.94292 6.99921C10.1342 7.42912 10.2947 7.85204 10.4242 8.26096ZM9.57833 8.48729C9.53108 8.34146 9.47975 8.19329 9.42433 8.04396C9.32544 8.22364 9.22275 8.40121 9.11633 8.57654C9.27383 8.54971 9.42783 8.51996 9.57775 8.48729H9.57833Z" fill="#1D2025"/>
</svg>