<svg xmlns="http://www.w3.org/2000/svg" width="14" height="15" viewBox="0 0 14 15" fill="none">
    <path d="M0 3.125C0 2.66087 0.184375 2.21575 0.512563 1.88756C0.840752 1.55937 1.28587 1.375 1.75 1.375H12.25C12.7141 1.375 13.1592 1.55937 13.4874 1.88756C13.8156 2.21575 14 2.66087 14 3.125V11.875C14 12.3391 13.8156 12.7842 13.4874 13.1124C13.1592 13.4406 12.7141 13.625 12.25 13.625H1.75C1.28587 13.625 0.840752 13.4406 0.512563 13.1124C0.184375 12.7842 0 12.3391 0 11.875V3.125ZM4.375 2.25V12.75H12.25C12.4821 12.75 12.7046 12.6578 12.8687 12.4937C13.0328 12.3296 13.125 12.1071 13.125 11.875V3.125C13.125 2.89294 13.0328 2.67038 12.8687 2.50628C12.7046 2.34219 12.4821 2.25 12.25 2.25H4.375ZM3.5 2.25H1.75C1.51794 2.25 1.29538 2.34219 1.13128 2.50628C0.967187 2.67038 0.875 2.89294 0.875 3.125V11.875C0.875 12.1071 0.967187 12.3296 1.13128 12.4937C1.29538 12.6578 1.51794 12.75 1.75 12.75H3.5V2.25Z"
          fill="#1D2025"/>
</svg>