<svg xmlns="http://www.w3.org/2000/svg" width="14" height="15" viewBox="0 0 14 15" fill="none">
    <path fill-rule="evenodd" clip-rule="evenodd"
          d="M0.637441 2.00384C0.733025 1.79782 0.939486 1.66602 1.16659 1.66602H12.8333C13.0604 1.66602 13.2668 1.79782 13.3624 2.00384C13.458 2.20985 13.4253 2.45261 13.2787 2.62602L8.74993 7.98127V12.7493C8.74993 12.9515 8.64525 13.1393 8.47327 13.2456C8.30129 13.3518 8.08655 13.3615 7.90572 13.2711L5.57239 12.1044C5.37476 12.0056 5.24993 11.8036 5.24993 11.5827V7.98127L0.721177 2.62602C0.574529 2.45261 0.541857 2.20985 0.637441 2.00384ZM2.42385 2.83268L6.27868 7.39101C6.36773 7.49632 6.41659 7.62977 6.41659 7.76768V11.2222L7.58326 11.8055V7.76768C7.58326 7.62977 7.63212 7.49632 7.72118 7.39101L11.576 2.83268H2.42385Z"
          fill="black"/>
</svg>